<svg width="166" height="24" viewBox="0 0 166 24" fill="none" xmlns="http://www.w3.org/2000/svg">
<path d="M12.696 0.695999V17.176C12.696 19.0107 12.1307 20.4827 11 21.592C9.86933 22.68 8.376 23.224 6.52 23.224C4.64267 23.224 3.13867 22.6693 2.008 21.56C0.877333 20.4293 0.312 18.8933 0.312 16.952H3.224C3.24533 18.04 3.52267 18.9253 4.056 19.608C4.61067 20.2907 5.432 20.632 6.52 20.632C7.608 20.632 8.41867 20.312 8.952 19.672C9.48533 19.0107 9.752 18.1787 9.752 17.176V0.695999H12.696ZM21.2808 0.695999V14.808C21.2808 16.792 21.7608 18.264 22.7208 19.224C23.7021 20.184 25.0568 20.664 26.7848 20.664C28.4914 20.664 29.8248 20.184 30.7848 19.224C31.7661 18.264 32.2568 16.792 32.2568 14.808V0.695999H35.1688V14.776C35.1688 16.632 34.7954 18.2 34.0487 19.48C33.3021 20.7387 32.2888 21.6773 31.0088 22.296C29.7501 22.9147 28.3314 23.224 26.7528 23.224C25.1741 23.224 23.7448 22.9147 22.4648 22.296C21.2061 21.6773 20.2034 20.7387 19.4568 19.48C18.7314 18.2 18.3688 16.632 18.3688 14.776V0.695999H21.2808ZM57.5625 23H54.6505L42.9385 5.24V23H40.0265V0.664H42.9385L54.6505 18.392V0.664H57.5625V23ZM65.4385 3.064V10.52H73.5665V12.92H65.4385V20.6H74.5265V23H62.5265V0.664H74.5265V3.064H65.4385Z" fill="black"/>
<path d="M86.0048 23.224C84.5328 23.224 83.2101 22.968 82.0368 22.456C80.8848 21.9227 79.9781 21.1973 79.3168 20.28C78.6554 19.3413 78.3141 18.264 78.2928 17.048H81.3968C81.5034 18.0933 81.9301 18.9787 82.6768 19.704C83.4448 20.408 84.5541 20.76 86.0048 20.76C87.3914 20.76 88.4794 20.4187 89.2688 19.736C90.0794 19.032 90.4848 18.136 90.4848 17.048C90.4848 16.1947 90.2501 15.5013 89.7808 14.968C89.3114 14.4347 88.7248 14.0293 88.0208 13.752C87.3168 13.4747 86.3674 13.176 85.1728 12.856C83.7008 12.472 82.5168 12.088 81.6208 11.704C80.7461 11.32 79.9888 10.7227 79.3488 9.912C78.7301 9.08 78.4208 7.97067 78.4208 6.584C78.4208 5.368 78.7301 4.29067 79.3488 3.352C79.9674 2.41333 80.8314 1.688 81.9408 1.176C83.0714 0.663999 84.3621 0.407999 85.8128 0.407999C87.9034 0.407999 89.6101 0.930666 90.9328 1.976C92.2768 3.02133 93.0341 4.408 93.2048 6.136H90.0048C89.8981 5.28267 89.4501 4.536 88.6608 3.896C87.8714 3.23467 86.8261 2.904 85.5248 2.904C84.3088 2.904 83.3168 3.224 82.5488 3.864C81.7808 4.48267 81.3968 5.35733 81.3968 6.488C81.3968 7.29867 81.6208 7.96 82.0688 8.472C82.5381 8.984 83.1034 9.37867 83.7648 9.656C84.4474 9.912 85.3968 10.2107 86.6128 10.552C88.0848 10.9573 89.2688 11.3627 90.1648 11.768C91.0608 12.152 91.8288 12.76 92.4688 13.592C93.1088 14.4027 93.4288 15.512 93.4288 16.92C93.4288 18.008 93.1408 19.032 92.5648 19.992C91.9888 20.952 91.1354 21.7307 90.0048 22.328C88.8741 22.9253 87.5408 23.224 86.0048 23.224ZM111.442 0.695999V3.064H105.362V23H102.45V3.064H96.338V0.695999H111.442ZM128.211 18.04H118.483L116.691 23H113.618L121.683 0.823999H125.043L133.075 23H130.003L128.211 18.04ZM127.379 15.672L123.347 4.408L119.315 15.672H127.379ZM150.317 0.695999V3.064H144.237V23H141.325V3.064H135.213V0.695999H150.317ZM156.814 3.064V10.52H164.942V12.92H156.814V20.6H165.902V23H153.902V0.664H165.902V3.064H156.814Z" fill="#13B7F2"/>
</svg>
